<svg width="600" height="407" viewBox="0 0 600 407" fill="none" xmlns="http://www.w3.org/2000/svg">
<path d="M594.256 400H4.92251C2.20388 400 0 401.567 0 403.5C0 405.433 2.20388 407 4.92251 407H594.256C596.975 407 599.179 405.433 599.179 403.5C599.179 401.567 596.975 400 594.256 400Z" fill="#9F5F80"/>
<path opacity="0.2" fill-rule="evenodd" clip-rule="evenodd" d="M320.875 28.5156C365.504 22.5372 415.225 -17.7991 451.234 9.23425C487.401 36.3855 465.71 95.2412 469.755 140.284C472.732 173.437 471.961 204.394 471.748 237.679C471.412 290.206 509.906 359.497 468.149 391.363C426.796 422.919 372.607 358.261 320.875 352.812C277.818 348.277 233.76 380.884 194.54 362.543C153.145 343.184 120.419 301.165 113.76 255.954C107.373 212.589 142.816 176.554 161.291 136.806C177.007 102.994 182.787 61.9984 213.641 41.0621C244.167 20.3474 284.31 33.4138 320.875 28.5156Z" fill="url(#emptycart-1)"/>
<g clip-path="url(#emptycart-3)">
<path d="M188.955 223.463L375.881 112.418L322.209 68L176 156.836L188.955 223.463Z" fill="#F7CDBE"/>
<path d="M204.187 151.635L192.657 158.687L216.716 197.552L226.525 191.537L204.187 151.635Z" fill="#9F5F80"/>
<path d="M248.216 124.688L237.908 130.999L261.634 170.069L272.443 163.461L248.216 124.688Z" fill="#9F5F80"/>
<path d="M270.98 110.771L260.338 117.267L283.861 156.466L295.206 149.525L270.98 110.771Z" fill="#9F5F80"/>
<path d="M328.539 129.13L340.717 121.672L316.657 82.806L305.016 89.9313L328.539 129.13Z" fill="#9F5F80"/>
<path d="M292.893 97.3528L282.473 103.719L307.847 141.789L317.119 136.107L292.893 97.3528Z" fill="#9F5F80"/>
<path d="M226.007 137.644L215.699 143.955L239.425 183.024L250.234 176.417L226.007 137.644Z" fill="#9F5F80"/>
<path d="M179.702 229.015L385.134 106.866L424 193.851L240.776 304.896L179.702 229.015Z" fill="url(#emptycart-2)"/>
<path d="M198.209 236.418L240.776 291.94L412.896 188.299L385.134 123.522L198.209 236.418Z" fill="#9F5F80"/>
<path d="M179.702 229.015L183.588 233.845L388.096 113.473L385.134 106.866L179.702 229.015Z" fill="#F39200"/>
<path d="M252.195 185.578L294.448 225.313L307.403 217.91L264.947 178.323L252.195 185.578Z" fill="#4F4F4F"/>
<path d="M301.851 156.466L314.547 148.841L327.761 206.806L316.657 212.358L301.851 156.466Z" fill="#4F4F4F"/>
<path d="M294.448 225.313L333.313 286.388L344.418 278.985L307.403 217.91L294.448 225.313Z" fill="#666868"/>
<path d="M353.672 273.433L364.776 266.03L327.761 206.806L316.657 212.358L353.672 273.433Z" fill="#666868"/>
<path d="M307.403 264.512L333.313 286.388L316.064 259.275L307.403 264.512Z" fill="#4F4F4F"/>
<path d="M348.323 239.712L358.002 233.845L364.776 267.881L348.323 239.712Z" fill="#4F4F4F"/>
</g>
<defs>
<linearGradient id="emptycart-1" x1="113" y1="0" x2="575.062" y2="273.893" gradientUnits="userSpaceOnUse">
<stop stop-color="#F39200" stop-opacity="0"/>
<stop offset="1" stop-color="#F83600"/>
</linearGradient>
<linearGradient id="emptycart-2" x1="179.702" y1="106.866" x2="432.675" y2="304.394" gradientUnits="userSpaceOnUse">
<stop stop-color="#F39200"/>
<stop offset="1" stop-color="#F83600"/>
</linearGradient>
<clipPath id="emptycart-3">
<rect width="248" height="301.672" fill="white" transform="translate(176 68)"/>
</clipPath>
</defs>
</svg>
